# xmcd
#
# Track frame offsets:
#	150
#	16210
#	25859
#	44268
#	59077
#	73543
#	86491
#	106353
#	120482
#	133728
#	144721
#
# Disc length: 2157 seconds
#
# Revision: 0
# Processed by: cddbd v1.5.2PL0 Copyright (c) Steve Scherf et al.
# Submitted via: EZCDAudioConverter 5.0.0.1
#
DISCID=98086b0b
DTITLE=Jim Lauderdale - This Changes Everything
DYEAR=2016
DGENRE=Country
TTITLE0=This Changes Everything
TTITLE1=You Turn Me Around
TTITLE2=It All Started and Ended with You
TTITLE3=The Weakness of Two Hearts
TTITLE4=Lost in the Shuffle
TTITLE5=There Is a Horizon
TTITLE6=All the Rage in Paris
TTITLE7=Nobody’s Fault
TTITLE8=I'll Still Be Around
TTITLE9=We Really Shouldn't Be Doing This
TTITLE10=Drive
EXTD=
EXTT0=
EXTT1=
EXTT2=
EXTT3=
EXTT4=
EXTT5=
EXTT6=
EXTT7=
EXTT8=
EXTT9=
EXTT10=
PLAYORDER=
